<svg width="211" height="42" viewBox="0 0 211 42" fill="none" xmlns="http://www.w3.org/2000/svg">
<g clip-path="url(#clip0)">
<path d="M58.56 35.086C58.56 33.3687 58.854 32.0947 59.442 31.264C60.03 30.424 60.8747 30.004 61.976 30.004C63.152 30.004 64.0153 30.4193 64.566 31.25C65.1167 32.0713 65.392 33.35 65.392 35.086C65.392 36.8127 65.0933 38.096 64.496 38.936C63.908 39.776 63.0633 40.196 61.962 40.196C60.7953 40.196 59.9367 39.7573 59.386 38.88C58.8353 37.9933 58.56 36.7287 58.56 35.086ZM60.38 35.086C60.38 36.2247 60.5013 37.1067 60.744 37.732C60.996 38.348 61.4067 38.656 61.976 38.656C62.5267 38.656 62.928 38.3713 63.18 37.802C63.4413 37.2327 63.572 36.3273 63.572 35.086C63.572 33.9567 63.4507 33.084 63.208 32.468C62.9653 31.852 62.55 31.544 61.962 31.544C61.402 31.544 60.996 31.8333 60.744 32.412C60.5013 32.9907 60.38 33.882 60.38 35.086ZM66.5034 35.086C66.5034 33.3687 66.7974 32.0947 67.3854 31.264C67.9734 30.424 68.818 30.004 69.9194 30.004C71.0954 30.004 71.9587 30.4193 72.5094 31.25C73.06 32.0713 73.3354 33.35 73.3354 35.086C73.3354 36.8127 73.0367 38.096 72.4394 38.936C71.8514 39.776 71.0067 40.196 69.9054 40.196C68.7387 40.196 67.88 39.7573 67.3294 38.88C66.7787 37.9933 66.5034 36.7287 66.5034 35.086ZM68.3234 35.086C68.3234 36.2247 68.4447 37.1067 68.6874 37.732C68.9394 38.348 69.35 38.656 69.9194 38.656C70.47 38.656 70.8714 38.3713 71.1234 37.802C71.3847 37.2327 71.5154 36.3273 71.5154 35.086C71.5154 33.9567 71.394 33.084 71.1514 32.468C70.9087 31.852 70.4934 31.544 69.9054 31.544C69.3454 31.544 68.9394 31.8333 68.6874 32.412C68.4447 32.9907 68.3234 33.882 68.3234 35.086ZM74.4467 35.086C74.4467 33.3687 74.7407 32.0947 75.3287 31.264C75.9167 30.424 76.7614 30.004 77.8627 30.004C79.0387 30.004 79.9021 30.4193 80.4527 31.25C81.0034 32.0713 81.2787 33.35 81.2787 35.086C81.2787 36.8127 80.9801 38.096 80.3827 38.936C79.7947 39.776 78.9501 40.196 77.8487 40.196C76.6821 40.196 75.8234 39.7573 75.2727 38.88C74.7221 37.9933 74.4467 36.7287 74.4467 35.086ZM76.2667 35.086C76.2667 36.2247 76.3881 37.1067 76.6307 37.732C76.8827 38.348 77.2934 38.656 77.8627 38.656C78.4134 38.656 78.8147 38.3713 79.0667 37.802C79.3281 37.2327 79.4587 36.3273 79.4587 35.086C79.4587 33.9567 79.3374 33.084 79.0947 32.468C78.8521 31.852 78.4367 31.544 77.8487 31.544C77.2887 31.544 76.8827 31.8333 76.6307 32.412C76.3881 32.9907 76.2667 33.882 76.2667 35.086ZM82.5861 35.17H86.1001V36.78H82.5861V35.17ZM87.435 35.086C87.435 33.3687 87.729 32.0947 88.317 31.264C88.905 30.424 89.7497 30.004 90.851 30.004C92.027 30.004 92.8903 30.4193 93.441 31.25C93.9917 32.0713 94.267 33.35 94.267 35.086C94.267 36.8127 93.9683 38.096 93.371 38.936C92.783 39.776 91.9383 40.196 90.837 40.196C89.6703 40.196 88.8117 39.7573 88.261 38.88C87.7103 37.9933 87.435 36.7287 87.435 35.086ZM89.255 35.086C89.255 36.2247 89.3763 37.1067 89.619 37.732C89.871 38.348 90.2817 38.656 90.851 38.656C91.4017 38.656 91.803 38.3713 92.055 37.802C92.3163 37.2327 92.447 36.3273 92.447 35.086C92.447 33.9567 92.3257 33.084 92.083 32.468C91.8403 31.852 91.425 31.544 90.837 31.544C90.277 31.544 89.871 31.8333 89.619 32.412C89.3763 32.9907 89.255 33.882 89.255 35.086ZM95.3784 35.086C95.3784 33.3687 95.6724 32.0947 96.2604 31.264C96.8484 30.424 97.693 30.004 98.7944 30.004C99.9704 30.004 100.834 30.4193 101.384 31.25C101.935 32.0713 102.21 33.35 102.21 35.086C102.21 36.8127 101.912 38.096 101.314 38.936C100.726 39.776 99.8817 40.196 98.7804 40.196C97.6137 40.196 96.755 39.7573 96.2044 38.88C95.6537 37.9933 95.3784 36.7287 95.3784 35.086ZM97.1984 35.086C97.1984 36.2247 97.3197 37.1067 97.5624 37.732C97.8144 38.348 98.225 38.656 98.7944 38.656C99.345 38.656 99.7464 38.3713 99.9984 37.802C100.26 37.2327 100.39 36.3273 100.39 35.086C100.39 33.9567 100.269 33.084 100.026 32.468C99.7837 31.852 99.3684 31.544 98.7804 31.544C98.2204 31.544 97.8144 31.8333 97.5624 32.412C97.3197 32.9907 97.1984 33.882 97.1984 35.086ZM103.322 35.086C103.322 33.3687 103.616 32.0947 104.204 31.264C104.792 30.424 105.636 30.004 106.738 30.004C107.914 30.004 108.777 30.4193 109.328 31.25C109.878 32.0713 110.154 33.35 110.154 35.086C110.154 36.8127 109.855 38.096 109.258 38.936C108.67 39.776 107.825 40.196 106.724 40.196C105.557 40.196 104.698 39.7573 104.148 38.88C103.597 37.9933 103.322 36.7287 103.322 35.086ZM105.142 35.086C105.142 36.2247 105.263 37.1067 105.506 37.732C105.758 38.348 106.168 38.656 106.738 38.656C107.288 38.656 107.69 38.3713 107.942 37.802C108.203 37.2327 108.334 36.3273 108.334 35.086C108.334 33.9567 108.212 33.084 107.97 32.468C107.727 31.852 107.312 31.544 106.724 31.544C106.164 31.544 105.758 31.8333 105.506 32.412C105.263 32.9907 105.142 33.882 105.142 35.086ZM111.461 35.17H114.975V36.78H111.461V35.17ZM116.31 35.086C116.31 33.3687 116.604 32.0947 117.192 31.264C117.78 30.424 118.625 30.004 119.726 30.004C120.902 30.004 121.765 30.4193 122.316 31.25C122.867 32.0713 123.142 33.35 123.142 35.086C123.142 36.8127 122.843 38.096 122.246 38.936C121.658 39.776 120.813 40.196 119.712 40.196C118.545 40.196 117.687 39.7573 117.136 38.88C116.585 37.9933 116.31 36.7287 116.31 35.086ZM118.13 35.086C118.13 36.2247 118.251 37.1067 118.494 37.732C118.746 38.348 119.157 38.656 119.726 38.656C120.277 38.656 120.678 38.3713 120.93 37.802C121.191 37.2327 121.322 36.3273 121.322 35.086C121.322 33.9567 121.201 33.084 120.958 32.468C120.715 31.852 120.3 31.544 119.712 31.544C119.152 31.544 118.746 31.8333 118.494 32.412C118.251 32.9907 118.13 33.882 118.13 35.086ZM124.253 35.086C124.253 33.3687 124.547 32.0947 125.135 31.264C125.723 30.424 126.568 30.004 127.669 30.004C128.845 30.004 129.709 30.4193 130.259 31.25C130.81 32.0713 131.085 33.35 131.085 35.086C131.085 36.8127 130.787 38.096 130.189 38.936C129.601 39.776 128.757 40.196 127.655 40.196C126.489 40.196 125.63 39.7573 125.079 38.88C124.529 37.9933 124.253 36.7287 124.253 35.086ZM126.073 35.086C126.073 36.2247 126.195 37.1067 126.437 37.732C126.689 38.348 127.1 38.656 127.669 38.656C128.22 38.656 128.621 38.3713 128.873 37.802C129.135 37.2327 129.265 36.3273 129.265 35.086C129.265 33.9567 129.144 33.084 128.901 32.468C128.659 31.852 128.243 31.544 127.655 31.544C127.095 31.544 126.689 31.8333 126.437 32.412C126.195 32.9907 126.073 33.882 126.073 35.086Z" fill="black"/>
<path d="M59.02 8.6H63.592V9.488H60.016V12.236H63.292V13.124H60.016V16.112H63.652V17H59.02V8.6ZM68.8736 17V13.604C68.8736 13.284 68.8576 13.008 68.8256 12.776C68.8016 12.536 68.7496 12.336 68.6696 12.176C68.5896 12.016 68.4736 11.896 68.3216 11.816C68.1776 11.736 67.9856 11.696 67.7456 11.696C67.3776 11.696 67.0696 11.808 66.8216 12.032C66.5816 12.256 66.4136 12.536 66.3176 12.872V17H65.3576V11H66.0296L66.2096 11.732H66.2576C66.4736 11.476 66.7216 11.268 67.0016 11.108C67.2896 10.94 67.6616 10.856 68.1176 10.856C68.5016 10.856 68.8136 10.932 69.0536 11.084C69.3016 11.228 69.4936 11.484 69.6296 11.852C69.8136 11.54 70.0656 11.296 70.3856 11.12C70.7136 10.944 71.0816 10.856 71.4896 10.856C71.8256 10.856 72.1096 10.896 72.3416 10.976C72.5736 11.048 72.7656 11.18 72.9176 11.372C73.0696 11.564 73.1776 11.824 73.2416 12.152C73.3136 12.48 73.3496 12.896 73.3496 13.4V17H72.3896V13.388C72.3896 13.1 72.3736 12.852 72.3416 12.644C72.3176 12.428 72.2616 12.252 72.1736 12.116C72.0936 11.972 71.9776 11.868 71.8256 11.804C71.6816 11.732 71.4896 11.696 71.2496 11.696C70.8496 11.696 70.5376 11.808 70.3136 12.032C70.0896 12.256 69.9296 12.576 69.8336 12.992V17H68.8736ZM79.4759 16.52C79.2359 16.712 78.9319 16.864 78.5639 16.976C78.2039 17.088 77.8199 17.144 77.4119 17.144C76.9559 17.144 76.5599 17.072 76.2239 16.928C75.8879 16.776 75.6119 16.564 75.3959 16.292C75.1799 16.012 75.0199 15.68 74.9159 15.296C74.8119 14.912 74.7599 14.48 74.7599 14C74.7599 12.976 74.9879 12.196 75.4439 11.66C75.8999 11.124 76.5519 10.856 77.3999 10.856C77.6719 10.856 77.9439 10.888 78.2159 10.952C78.4879 11.008 78.7319 11.12 78.9479 11.288C79.1639 11.456 79.3399 11.696 79.4759 12.008C79.6119 12.312 79.6799 12.716 79.6799 13.22C79.6799 13.484 79.6559 13.776 79.6079 14.096H75.7559C75.7559 14.448 75.7919 14.76 75.8639 15.032C75.9359 15.304 76.0479 15.536 76.1999 15.728C76.3519 15.912 76.5479 16.056 76.7879 16.16C77.0359 16.256 77.3359 16.304 77.6879 16.304C77.9599 16.304 78.2319 16.256 78.5039 16.16C78.7759 16.064 78.9799 15.952 79.1159 15.824L79.4759 16.52ZM77.4119 11.696C76.9399 11.696 76.5599 11.82 76.2719 12.068C75.9919 12.316 75.8239 12.74 75.7679 13.34H78.7439C78.7439 12.732 78.6279 12.308 78.3959 12.068C78.1639 11.82 77.8359 11.696 77.4119 11.696ZM84.0216 11.924C83.7816 11.844 83.5536 11.804 83.3376 11.804C82.9936 11.804 82.7216 11.9 82.5216 12.092C82.3216 12.276 82.1976 12.512 82.1496 12.8V17H81.1896V11H81.8616L82.0416 11.732H82.0896C82.2416 11.46 82.4216 11.252 82.6296 11.108C82.8456 10.956 83.1176 10.88 83.4456 10.88C83.6776 10.88 83.9376 10.92 84.2256 11L84.0216 11.924ZM89.8638 17.276C89.8638 18.052 89.6558 18.624 89.2398 18.992C88.8318 19.36 88.2238 19.544 87.4158 19.544C86.9358 19.544 86.5478 19.512 86.2518 19.448C85.9638 19.392 85.7158 19.316 85.5078 19.22L85.7598 18.404C85.9438 18.476 86.1478 18.544 86.3718 18.608C86.5958 18.672 86.8878 18.704 87.2478 18.704C87.5838 18.704 87.8558 18.672 88.0638 18.608C88.2798 18.552 88.4518 18.452 88.5798 18.308C88.7078 18.172 88.7958 17.992 88.8438 17.768C88.8918 17.552 88.9158 17.292 88.9158 16.988V16.412H88.8678C88.7078 16.644 88.5038 16.824 88.2558 16.952C88.0078 17.072 87.6838 17.132 87.2838 17.132C86.4758 17.132 85.8798 16.88 85.4958 16.376C85.1198 15.872 84.9318 15.088 84.9318 14.024C84.9318 13 85.1758 12.224 85.6638 11.696C86.1518 11.16 86.8718 10.892 87.8238 10.892C88.2798 10.892 88.6678 10.928 88.9878 11C89.3158 11.072 89.6078 11.156 89.8638 11.252V17.276ZM87.4518 16.292C87.8598 16.292 88.1798 16.192 88.4118 15.992C88.6438 15.784 88.8078 15.464 88.9038 15.032V11.96C88.5838 11.808 88.1758 11.732 87.6798 11.732C87.1358 11.732 86.7078 11.916 86.3958 12.284C86.0838 12.652 85.9277 13.228 85.9277 14.012C85.9277 14.348 85.9558 14.656 86.0118 14.936C86.0678 15.216 86.1558 15.456 86.2758 15.656C86.3958 15.856 86.5518 16.012 86.7438 16.124C86.9358 16.236 87.1718 16.292 87.4518 16.292ZM96.0931 16.52C95.8531 16.712 95.5491 16.864 95.1811 16.976C94.8211 17.088 94.4371 17.144 94.0291 17.144C93.5731 17.144 93.1771 17.072 92.8411 16.928C92.5051 16.776 92.2291 16.564 92.0131 16.292C91.7971 16.012 91.6371 15.68 91.5331 15.296C91.4291 14.912 91.3771 14.48 91.3771 14C91.3771 12.976 91.6051 12.196 92.0611 11.66C92.5171 11.124 93.1691 10.856 94.0171 10.856C94.2891 10.856 94.5611 10.888 94.8331 10.952C95.1051 11.008 95.3491 11.12 95.5651 11.288C95.7811 11.456 95.9571 11.696 96.0931 12.008C96.2291 12.312 96.2971 12.716 96.2971 13.22C96.2971 13.484 96.2731 13.776 96.2251 14.096H92.3731C92.3731 14.448 92.4091 14.76 92.4811 15.032C92.5531 15.304 92.6651 15.536 92.8171 15.728C92.9691 15.912 93.1651 16.056 93.4051 16.16C93.6531 16.256 93.9531 16.304 94.3051 16.304C94.5771 16.304 94.8491 16.256 95.1211 16.16C95.3931 16.064 95.5971 15.952 95.7331 15.824L96.0931 16.52ZM94.0291 11.696C93.5571 11.696 93.1771 11.82 92.8891 12.068C92.6091 12.316 92.4411 12.74 92.3851 13.34H95.3611C95.3611 12.732 95.2451 12.308 95.0131 12.068C94.7811 11.82 94.4531 11.696 94.0291 11.696ZM101.659 17V13.58C101.659 12.956 101.567 12.488 101.383 12.176C101.207 11.856 100.879 11.696 100.399 11.696C99.9748 11.696 99.6228 11.812 99.3428 12.044C99.0708 12.268 98.8788 12.552 98.7668 12.896V17H97.8068V11H98.4788L98.6588 11.732H98.7068C98.8988 11.476 99.1548 11.268 99.4748 11.108C99.8028 10.94 100.191 10.856 100.639 10.856C100.967 10.856 101.255 10.896 101.503 10.976C101.751 11.048 101.955 11.18 102.115 11.372C102.283 11.564 102.407 11.824 102.487 12.152C102.575 12.472 102.619 12.88 102.619 13.376V17H101.659ZM108.461 16.604C108.221 16.78 107.937 16.912 107.609 17C107.281 17.096 106.937 17.144 106.577 17.144C106.113 17.144 105.721 17.072 105.401 16.928C105.081 16.776 104.817 16.564 104.609 16.292C104.409 16.012 104.261 15.68 104.165 15.296C104.077 14.904 104.033 14.472 104.033 14C104.033 12.984 104.257 12.208 104.705 11.672C105.153 11.128 105.797 10.856 106.637 10.856C107.021 10.856 107.345 10.888 107.609 10.952C107.881 11.008 108.125 11.092 108.341 11.204L108.065 12.032C107.881 11.928 107.677 11.848 107.453 11.792C107.229 11.728 106.989 11.696 106.733 11.696C105.597 11.696 105.029 12.464 105.029 14C105.029 14.304 105.057 14.596 105.113 14.876C105.177 15.148 105.277 15.392 105.413 15.608C105.557 15.816 105.741 15.984 105.965 16.112C106.197 16.24 106.481 16.304 106.817 16.304C107.105 16.304 107.361 16.26 107.585 16.172C107.817 16.084 108.005 15.984 108.149 15.872L108.461 16.604ZM111.407 14.888L111.743 16.04H111.803L112.067 14.876L113.231 11H114.203L112.427 16.388C112.291 16.78 112.155 17.16 112.019 17.528C111.891 17.896 111.747 18.224 111.587 18.512C111.427 18.8 111.247 19.028 111.047 19.196C110.847 19.372 110.615 19.46 110.351 19.46C110.063 19.46 109.827 19.42 109.643 19.34L109.811 18.512C109.915 18.552 110.015 18.572 110.111 18.572C110.335 18.572 110.551 18.452 110.759 18.212C110.967 17.98 111.139 17.576 111.275 17L108.863 11H109.967L111.407 14.888ZM121.85 17V13.58C121.85 12.956 121.758 12.488 121.574 12.176C121.398 11.856 121.07 11.696 120.59 11.696C120.166 11.696 119.814 11.812 119.534 12.044C119.262 12.268 119.07 12.552 118.958 12.896V17H117.998V11H118.67L118.85 11.732H118.898C119.09 11.476 119.346 11.268 119.666 11.108C119.994 10.94 120.382 10.856 120.83 10.856C121.158 10.856 121.446 10.896 121.694 10.976C121.942 11.048 122.146 11.18 122.306 11.372C122.474 11.564 122.598 11.824 122.678 12.152C122.766 12.472 122.81 12.88 122.81 13.376V17H121.85ZM125.425 11V14.42C125.425 14.732 125.441 15.008 125.473 15.248C125.513 15.48 125.577 15.676 125.665 15.836C125.753 15.988 125.873 16.104 126.025 16.184C126.177 16.264 126.369 16.304 126.601 16.304C126.817 16.304 127.009 16.272 127.177 16.208C127.345 16.136 127.493 16.04 127.621 15.92C127.757 15.8 127.873 15.664 127.969 15.512C128.073 15.352 128.157 15.184 128.221 15.008V11H129.181V15.296C129.181 15.584 129.189 15.884 129.205 16.196C129.229 16.5 129.265 16.768 129.313 17H128.653L128.413 16.052H128.353C128.169 16.364 127.921 16.624 127.609 16.832C127.297 17.04 126.901 17.144 126.421 17.144C126.101 17.144 125.817 17.104 125.569 17.024C125.329 16.952 125.125 16.82 124.957 16.628C124.797 16.436 124.673 16.18 124.585 15.86C124.505 15.532 124.465 15.12 124.465 14.624V11H125.425ZM134.545 17V13.604C134.545 13.284 134.529 13.008 134.497 12.776C134.473 12.536 134.421 12.336 134.341 12.176C134.261 12.016 134.145 11.896 133.993 11.816C133.849 11.736 133.657 11.696 133.417 11.696C133.049 11.696 132.741 11.808 132.493 12.032C132.253 12.256 132.085 12.536 131.989 12.872V17H131.029V11H131.701L131.881 11.732H131.929C132.145 11.476 132.393 11.268 132.673 11.108C132.961 10.94 133.333 10.856 133.789 10.856C134.173 10.856 134.485 10.932 134.725 11.084C134.973 11.228 135.165 11.484 135.301 11.852C135.485 11.54 135.737 11.296 136.057 11.12C136.385 10.944 136.753 10.856 137.161 10.856C137.497 10.856 137.781 10.896 138.013 10.976C138.245 11.048 138.437 11.18 138.589 11.372C138.741 11.564 138.849 11.824 138.913 12.152C138.985 12.48 139.021 12.896 139.021 13.4V17H138.061V13.388C138.061 13.1 138.045 12.852 138.013 12.644C137.989 12.428 137.933 12.252 137.845 12.116C137.765 11.972 137.649 11.868 137.497 11.804C137.353 11.732 137.161 11.696 136.921 11.696C136.521 11.696 136.209 11.808 135.985 12.032C135.761 12.256 135.601 12.576 135.505 12.992V17H134.545ZM140.768 8.6H141.728V11.588H141.776C141.96 11.356 142.192 11.176 142.472 11.048C142.76 10.92 143.072 10.856 143.408 10.856C144.184 10.856 144.764 11.104 145.148 11.6C145.54 12.096 145.736 12.864 145.736 13.904C145.736 14.952 145.48 15.748 144.968 16.292C144.456 16.836 143.736 17.108 142.808 17.108C142.36 17.108 141.952 17.06 141.584 16.964C141.224 16.868 140.952 16.764 140.768 16.652V8.6ZM143.24 11.696C142.84 11.696 142.516 11.808 142.268 12.032C142.02 12.256 141.84 12.572 141.728 12.98V16.004C141.88 16.092 142.064 16.16 142.28 16.208C142.496 16.248 142.72 16.268 142.952 16.268C143.496 16.268 143.928 16.076 144.248 15.692C144.576 15.308 144.74 14.708 144.74 13.892C144.74 13.58 144.712 13.288 144.656 13.016C144.6 12.744 144.512 12.512 144.392 12.32C144.272 12.128 144.116 11.976 143.924 11.864C143.74 11.752 143.512 11.696 143.24 11.696ZM151.628 16.52C151.388 16.712 151.084 16.864 150.716 16.976C150.356 17.088 149.972 17.144 149.564 17.144C149.108 17.144 148.712 17.072 148.376 16.928C148.04 16.776 147.764 16.564 147.548 16.292C147.332 16.012 147.172 15.68 147.068 15.296C146.964 14.912 146.912 14.48 146.912 14C146.912 12.976 147.14 12.196 147.596 11.66C148.052 11.124 148.704 10.856 149.552 10.856C149.824 10.856 150.096 10.888 150.368 10.952C150.64 11.008 150.884 11.12 151.1 11.288C151.316 11.456 151.492 11.696 151.628 12.008C151.764 12.312 151.832 12.716 151.832 13.22C151.832 13.484 151.808 13.776 151.76 14.096H147.908C147.908 14.448 147.944 14.76 148.016 15.032C148.088 15.304 148.2 15.536 148.352 15.728C148.504 15.912 148.7 16.056 148.94 16.16C149.188 16.256 149.488 16.304 149.84 16.304C150.112 16.304 150.384 16.256 150.656 16.16C150.928 16.064 151.132 15.952 151.268 15.824L151.628 16.52ZM149.564 11.696C149.092 11.696 148.712 11.82 148.424 12.068C148.144 12.316 147.976 12.74 147.92 13.34H150.896C150.896 12.732 150.78 12.308 150.548 12.068C150.316 11.82 149.988 11.696 149.564 11.696ZM156.174 11.924C155.934 11.844 155.706 11.804 155.49 11.804C155.146 11.804 154.874 11.9 154.674 12.092C154.474 12.276 154.35 12.512 154.302 12.8V17H153.342V11H154.014L154.194 11.732H154.242C154.394 11.46 154.574 11.252 154.782 11.108C154.998 10.956 155.27 10.88 155.598 10.88C155.83 10.88 156.09 10.92 156.378 11L156.174 11.924Z" fill="#808080"/>
<path fill-rule="evenodd" clip-rule="evenodd" d="M42.375 12.826C41.317 10.325 39.803 8.079 37.875 6.151C35.947 4.223 33.701 2.709 31.2 1.651C28.611 0.555 25.861 0 23.026 0V2C25.592 2 28.08 2.503 30.421 3.493C32.684 4.45 34.716 5.82 36.461 7.565C38.206 9.31 39.576 11.343 40.533 13.605C41.523 15.947 42.026 18.434 42.026 21C42.026 23.566 41.523 26.054 40.533 28.395C39.576 30.658 38.206 32.69 36.461 34.435C34.716 36.18 32.684 37.551 30.421 38.508C25.738 40.488 20.313 40.488 15.631 38.508C13.368 37.551 11.336 36.18 9.591 34.435C7.846 32.69 6.476 30.658 5.519 28.395C4.528 26.054 4.026 23.566 4.026 21C4.026 18.831 4.407 16.724 5.116 14.707L8.367 16.816L8.884 6.858L0 11.388L3.397 13.592C2.502 15.957 2.026 18.441 2.026 21C2.026 23.835 2.581 26.585 3.677 29.175C4.734 31.676 6.249 33.921 8.177 35.849C10.105 37.778 12.351 39.292 14.852 40.349C17.441 41.445 20.191 42 23.026 42C25.861 42 28.611 41.445 31.2 40.349C33.701 39.292 35.947 37.778 37.875 35.849C39.803 33.921 41.317 31.676 42.375 29.175C43.471 26.585 44.026 23.835 44.026 21C44.026 18.165 43.471 15.415 42.375 12.826" fill="#EEEEEE"/>
<path d="M17.1982 19.71C17.1982 20.05 17.1349 20.3933 17.0082 20.74C16.8882 21.0867 16.7316 21.4267 16.5382 21.76C16.3516 22.0933 16.1416 22.4167 15.9082 22.73C15.6816 23.0367 15.4582 23.32 15.2382 23.58L14.7082 23.99V24.04L15.4282 23.9H17.3482V25H13.1382V24.33C13.2982 24.1633 13.4782 23.97 13.6782 23.75C13.8782 23.5233 14.0782 23.2867 14.2782 23.04C14.4849 22.7867 14.6849 22.5267 14.8782 22.26C15.0716 21.9933 15.2449 21.7267 15.3982 21.46C15.5516 21.1867 15.6716 20.9233 15.7582 20.67C15.8516 20.4167 15.8982 20.1767 15.8982 19.95C15.8982 19.6767 15.8182 19.4533 15.6582 19.28C15.5049 19.1 15.2582 19.01 14.9182 19.01C14.7049 19.01 14.4849 19.0567 14.2582 19.15C14.0382 19.2367 13.8516 19.35 13.6982 19.49L13.1782 18.57C13.4382 18.3567 13.7316 18.1867 14.0582 18.06C14.3916 17.9267 14.7816 17.86 15.2282 17.86C15.5149 17.86 15.7782 17.9 16.0182 17.98C16.2582 18.06 16.4649 18.1767 16.6382 18.33C16.8116 18.4833 16.9482 18.6767 17.0482 18.91C17.1482 19.1367 17.1982 19.4033 17.1982 19.71ZM23.6521 23.05H22.5521V25H21.3421V23.05H18.3121V22.31L21.4821 17.95H22.5521V22.01H23.6521V23.05ZM21.3421 20.48L21.4321 19.64H21.3921L21.0521 20.36L20.0121 21.71L19.5121 22.09L20.1521 22.01H21.3421V20.48ZM27.1259 17.88L28.1059 18.32L24.5359 26.4L23.5559 25.94L27.1259 17.88ZM28.9179 25L31.2079 19.61L31.6479 19.12L31.0479 19.22H28.4779V18H32.9879V18.38L30.1879 25H28.9179Z" fill="#EE1C25"/>
</g>
<defs>
<clipPath id="clip0">
<rect width="211" height="42" fill="white"/>
</clipPath>
</defs>
</svg>
