<svg width="609" height="17" viewBox="0 0 609 17" fill="none" xmlns="http://www.w3.org/2000/svg">
<path d="M0.979219 0.526C1.43522 0.441999 1.95722 0.375999 2.54522 0.327999C3.14522 0.28 3.69122 0.256 4.18322 0.256C4.73522 0.256 5.25722 0.316 5.74922 0.436C6.25322 0.556 6.69122 0.754 7.06322 1.03C7.44722 1.306 7.75322 1.666 7.98122 2.11C8.20922 2.554 8.32322 3.094 8.32322 3.73C8.32322 4.714 8.05322 5.512 7.51322 6.124C6.97322 6.736 6.28922 7.144 5.46122 7.348L6.32522 8.014L9.45722 13H7.71122L4.23722 7.564L2.47322 7.294V13H0.979219V0.526ZM4.21922 1.552C4.06322 1.552 3.90122 1.552 3.73322 1.552C3.56522 1.552 3.40322 1.558 3.24722 1.57C3.09122 1.582 2.94122 1.594 2.79722 1.606C2.66522 1.618 2.55722 1.636 2.47322 1.66V6.304H3.87722C4.70522 6.304 5.38922 6.1 5.92922 5.692C6.46922 5.284 6.73922 4.648 6.73922 3.784C6.73922 3.136 6.51722 2.602 6.07322 2.182C5.62922 1.762 5.01122 1.552 4.21922 1.552ZM17.249 12.28C16.889 12.568 16.433 12.796 15.881 12.964C15.341 13.132 14.765 13.216 14.153 13.216C13.469 13.216 12.875 13.108 12.371 12.892C11.867 12.664 11.453 12.346 11.129 11.938C10.805 11.518 10.565 11.02 10.409 10.444C10.253 9.868 10.175 9.22 10.175 8.5C10.175 6.964 10.517 5.794 11.201 4.99C11.885 4.186 12.863 3.784 14.135 3.784C14.543 3.784 14.951 3.832 15.359 3.928C15.767 4.012 16.133 4.18 16.457 4.432C16.781 4.684 17.045 5.044 17.249 5.512C17.453 5.968 17.555 6.574 17.555 7.33C17.555 7.726 17.519 8.164 17.447 8.644H11.669C11.669 9.172 11.723 9.64 11.831 10.048C11.939 10.456 12.107 10.804 12.335 11.092C12.563 11.368 12.857 11.584 13.217 11.74C13.589 11.884 14.039 11.956 14.567 11.956C14.975 11.956 15.383 11.884 15.791 11.74C16.199 11.596 16.505 11.428 16.709 11.236L17.249 12.28ZM14.153 5.044C13.445 5.044 12.875 5.23 12.443 5.602C12.023 5.974 11.771 6.61 11.687 7.51H16.151C16.151 6.598 15.977 5.962 15.629 5.602C15.281 5.23 14.789 5.044 14.153 5.044ZM23.7796 10.552C23.7796 10.192 23.6716 9.91 23.4556 9.706C23.2396 9.502 22.9696 9.334 22.6456 9.202C22.3336 9.058 21.9856 8.926 21.6016 8.806C21.2296 8.674 20.8816 8.512 20.5576 8.32C20.2456 8.116 19.9816 7.858 19.7656 7.546C19.5496 7.234 19.4416 6.814 19.4416 6.286C19.4416 5.422 19.6876 4.792 20.1796 4.396C20.6716 3.988 21.3556 3.784 22.2316 3.784C22.8796 3.784 23.4196 3.844 23.8516 3.964C24.2956 4.072 24.6796 4.204 25.0036 4.36L24.6616 5.548C24.3856 5.416 24.0496 5.302 23.6536 5.206C23.2696 5.098 22.8556 5.044 22.4116 5.044C21.8836 5.044 21.4936 5.134 21.2416 5.314C21.0016 5.494 20.8816 5.806 20.8816 6.25C20.8816 6.562 20.9896 6.808 21.2056 6.988C21.4216 7.156 21.6856 7.312 21.9976 7.456C22.3216 7.588 22.6696 7.72 23.0416 7.852C23.4256 7.984 23.7736 8.158 24.0856 8.374C24.4096 8.59 24.6796 8.866 24.8956 9.202C25.1116 9.526 25.2196 9.958 25.2196 10.498C25.2196 10.882 25.1536 11.242 25.0216 11.578C24.9016 11.914 24.7096 12.202 24.4456 12.442C24.1816 12.682 23.8516 12.868 23.4556 13C23.0716 13.144 22.6156 13.216 22.0876 13.216C21.4036 13.216 20.8216 13.15 20.3416 13.018C19.8616 12.886 19.4596 12.73 19.1356 12.55L19.5676 11.326C19.8436 11.482 20.2036 11.626 20.6476 11.758C21.0916 11.89 21.5416 11.956 21.9976 11.956C22.5136 11.956 22.9396 11.854 23.2756 11.65C23.6116 11.446 23.7796 11.08 23.7796 10.552ZM27.7018 4H29.1418V13H27.7018V4ZM27.3958 1.264C27.3958 0.988 27.4858 0.754 27.6658 0.561999C27.8578 0.358 28.0978 0.256 28.3858 0.256C28.6738 0.256 28.9198 0.358 29.1238 0.561999C29.3278 0.754 29.4298 0.988 29.4298 1.264C29.4298 1.54 29.3278 1.768 29.1238 1.948C28.9198 2.128 28.6738 2.218 28.3858 2.218C28.0978 2.218 27.8578 2.128 27.6658 1.948C27.4858 1.768 27.3958 1.54 27.3958 1.264ZM39.1242 9.904C39.1242 10.516 39.1302 11.074 39.1422 11.578C39.1542 12.07 39.2082 12.556 39.3042 13.036H38.3322L37.9722 11.758H37.9002C37.6602 12.178 37.3122 12.526 36.8562 12.802C36.4002 13.078 35.8662 13.216 35.2542 13.216C34.0542 13.216 33.1602 12.838 32.5722 12.082C31.9962 11.326 31.7082 10.144 31.7082 8.536C31.7082 7 32.0682 5.836 32.7882 5.044C33.5202 4.24 34.5222 3.838 35.7942 3.838C36.2382 3.838 36.5862 3.862 36.8382 3.91C37.1022 3.958 37.3842 4.036 37.6842 4.144V0.399999H39.1242V9.904ZM35.4882 11.956C36.1002 11.956 36.5862 11.8 36.9462 11.488C37.3062 11.164 37.5522 10.678 37.6842 10.03V5.566C37.4682 5.398 37.2222 5.278 36.9462 5.206C36.6702 5.134 36.3042 5.098 35.8482 5.098C35.0202 5.098 34.3722 5.374 33.9042 5.926C33.4362 6.466 33.2022 7.336 33.2022 8.536C33.2022 9.028 33.2382 9.484 33.3102 9.904C33.3942 10.324 33.5262 10.684 33.7062 10.984C33.8862 11.284 34.1202 11.524 34.4082 11.704C34.7082 11.872 35.0682 11.956 35.4882 11.956ZM48.4677 12.28C48.1077 12.568 47.6517 12.796 47.0997 12.964C46.5597 13.132 45.9837 13.216 45.3717 13.216C44.6877 13.216 44.0937 13.108 43.5897 12.892C43.0857 12.664 42.6717 12.346 42.3477 11.938C42.0237 11.518 41.7837 11.02 41.6277 10.444C41.4717 9.868 41.3937 9.22 41.3937 8.5C41.3937 6.964 41.7357 5.794 42.4197 4.99C43.1037 4.186 44.0817 3.784 45.3537 3.784C45.7617 3.784 46.1697 3.832 46.5777 3.928C46.9857 4.012 47.3517 4.18 47.6757 4.432C47.9997 4.684 48.2637 5.044 48.4677 5.512C48.6717 5.968 48.7737 6.574 48.7737 7.33C48.7737 7.726 48.7377 8.164 48.6657 8.644H42.8877C42.8877 9.172 42.9417 9.64 43.0497 10.048C43.1577 10.456 43.3257 10.804 43.5537 11.092C43.7817 11.368 44.0757 11.584 44.4357 11.74C44.8077 11.884 45.2577 11.956 45.7857 11.956C46.1937 11.956 46.6017 11.884 47.0097 11.74C47.4177 11.596 47.7237 11.428 47.9277 11.236L48.4677 12.28ZM45.3717 5.044C44.6637 5.044 44.0937 5.23 43.6617 5.602C43.2417 5.974 42.9897 6.61 42.9057 7.51H47.3697C47.3697 6.598 47.1957 5.962 46.8477 5.602C46.4997 5.23 46.0077 5.044 45.3717 5.044ZM56.8163 13V7.87C56.8163 6.934 56.6783 6.232 56.4023 5.764C56.1383 5.284 55.6463 5.044 54.9263 5.044C54.2903 5.044 53.7623 5.218 53.3423 5.566C52.9343 5.902 52.6463 6.328 52.4783 6.844V13H51.0383V4H52.0463L52.3163 5.098H52.3883C52.6763 4.714 53.0603 4.402 53.5403 4.162C54.0323 3.91 54.6143 3.784 55.2863 3.784C55.7783 3.784 56.2103 3.844 56.5823 3.964C56.9543 4.072 57.2603 4.27 57.5003 4.558C57.7523 4.846 57.9383 5.236 58.0583 5.728C58.1903 6.208 58.2563 6.82 58.2563 7.564V13H56.8163ZM59.6941 4H61.0981V2.218L62.5381 1.804V4H64.9861V5.26H62.5381V10.246C62.5381 10.87 62.6161 11.314 62.7721 11.578C62.9281 11.83 63.1921 11.956 63.5641 11.956C63.8761 11.956 64.1401 11.926 64.3561 11.866C64.5721 11.794 64.8121 11.704 65.0761 11.596L65.4001 12.694C65.0761 12.85 64.7221 12.976 64.3381 13.072C63.9541 13.168 63.5401 13.216 63.0961 13.216C62.3641 13.216 61.8481 13.012 61.5481 12.604C61.2481 12.184 61.0981 11.488 61.0981 10.516V5.26H59.6941V4ZM67.2877 4H68.7277V13H67.2877V4ZM66.9817 1.264C66.9817 0.988 67.0717 0.754 67.2517 0.561999C67.4437 0.358 67.6837 0.256 67.9717 0.256C68.2597 0.256 68.5057 0.358 68.7097 0.561999C68.9137 0.754 69.0157 0.988 69.0157 1.264C69.0157 1.54 68.9137 1.768 68.7097 1.948C68.5057 2.128 68.2597 2.218 67.9717 2.218C67.6837 2.218 67.4437 2.128 67.2517 1.948C67.0717 1.768 66.9817 1.54 66.9817 1.264ZM71.6541 4.666C72.1101 4.39 72.6381 4.186 73.2381 4.054C73.8501 3.922 74.4861 3.856 75.1461 3.856C75.7701 3.856 76.2681 3.94 76.6401 4.108C77.0241 4.276 77.3121 4.498 77.5041 4.774C77.7081 5.038 77.8401 5.332 77.9001 5.656C77.9721 5.98 78.0081 6.304 78.0081 6.628C78.0081 7.348 77.9901 8.05 77.9541 8.734C77.9181 9.418 77.9001 10.066 77.9001 10.678C77.9001 11.122 77.9181 11.542 77.9541 11.938C77.9901 12.334 78.0561 12.7 78.1521 13.036H77.0901L76.7121 11.776H76.6221C76.5141 11.944 76.3761 12.112 76.2081 12.28C76.0521 12.436 75.8601 12.58 75.6321 12.712C75.4041 12.832 75.1401 12.934 74.8401 13.018C74.5401 13.102 74.1981 13.144 73.8141 13.144C73.4301 13.144 73.0701 13.084 72.7341 12.964C72.4101 12.844 72.1281 12.676 71.8881 12.46C71.6481 12.232 71.4561 11.962 71.3121 11.65C71.1801 11.338 71.1141 10.984 71.1141 10.588C71.1141 10.06 71.2221 9.622 71.4381 9.274C71.6541 8.914 71.9541 8.632 72.3381 8.428C72.7341 8.212 73.2021 8.062 73.7421 7.978C74.2941 7.882 74.9001 7.834 75.5601 7.834C75.7281 7.834 75.8901 7.834 76.0461 7.834C76.2141 7.834 76.3821 7.846 76.5501 7.87C76.5861 7.51 76.6041 7.186 76.6041 6.898C76.6041 6.238 76.4721 5.776 76.2081 5.512C75.9441 5.248 75.4641 5.116 74.7681 5.116C74.5641 5.116 74.3421 5.134 74.1021 5.17C73.8741 5.194 73.6341 5.236 73.3821 5.296C73.1421 5.344 72.9081 5.41 72.6801 5.494C72.4641 5.566 72.2721 5.65 72.1041 5.746L71.6541 4.666ZM74.2101 11.884C74.5461 11.884 74.8461 11.842 75.1101 11.758C75.3741 11.662 75.6021 11.548 75.7941 11.416C75.9861 11.272 76.1421 11.116 76.2621 10.948C76.3941 10.78 76.4901 10.618 76.5501 10.462V8.968C76.3821 8.956 76.2081 8.95 76.0281 8.95C75.8601 8.938 75.6921 8.932 75.5241 8.932C75.1521 8.932 74.7861 8.956 74.4261 9.004C74.0781 9.04 73.7661 9.118 73.4901 9.238C73.2261 9.346 73.0101 9.502 72.8421 9.706C72.6861 9.898 72.6081 10.144 72.6081 10.444C72.6081 10.864 72.7581 11.212 73.0581 11.488C73.3581 11.752 73.7421 11.884 74.2101 11.884ZM82.3298 10.786C82.3298 11.206 82.4018 11.506 82.5458 11.686C82.6898 11.866 82.8938 11.956 83.1578 11.956C83.3138 11.956 83.4818 11.944 83.6618 11.92C83.8418 11.896 84.0458 11.842 84.2738 11.758L84.4358 12.892C84.2438 12.988 83.9738 13.066 83.6258 13.126C83.2898 13.186 82.9958 13.216 82.7438 13.216C82.2038 13.216 81.7598 13.066 81.4118 12.766C81.0638 12.454 80.8898 11.932 80.8898 11.2V0.399999H82.3298V10.786ZM142.18 12.478C141.82 12.754 141.364 12.946 140.812 13.054C140.26 13.162 139.672 13.216 139.048 13.216C138.292 13.216 137.584 13.09 136.924 12.838C136.264 12.574 135.688 12.178 135.196 11.65C134.704 11.122 134.314 10.45 134.026 9.634C133.738 8.806 133.594 7.828 133.594 6.7C133.594 5.524 133.75 4.528 134.062 3.712C134.386 2.884 134.806 2.212 135.322 1.696C135.85 1.168 136.438 0.783999 137.086 0.543999C137.734 0.304 138.394 0.184 139.066 0.184C139.786 0.184 140.374 0.226 140.83 0.309999C141.286 0.381999 141.676 0.483999 142 0.616L141.64 1.93C141.064 1.654 140.242 1.516 139.174 1.516C138.682 1.516 138.196 1.606 137.716 1.786C137.236 1.966 136.804 2.26 136.42 2.668C136.048 3.076 135.748 3.61 135.52 4.27C135.292 4.93 135.178 5.74 135.178 6.7C135.178 7.564 135.286 8.32 135.502 8.968C135.718 9.616 136.012 10.156 136.384 10.588C136.768 11.02 137.212 11.344 137.716 11.56C138.232 11.776 138.79 11.884 139.39 11.884C139.93 11.884 140.398 11.83 140.794 11.722C141.202 11.614 141.544 11.476 141.82 11.308L142.18 12.478ZM143.118 8.5C143.118 6.976 143.454 5.812 144.126 5.008C144.81 4.192 145.788 3.784 147.06 3.784C147.732 3.784 148.314 3.898 148.806 4.126C149.31 4.342 149.724 4.66 150.048 5.08C150.372 5.488 150.612 5.986 150.768 6.574C150.924 7.15 151.002 7.792 151.002 8.5C151.002 10.024 150.66 11.194 149.976 12.01C149.304 12.814 148.332 13.216 147.06 13.216C146.388 13.216 145.8 13.108 145.296 12.892C144.804 12.664 144.396 12.346 144.072 11.938C143.748 11.518 143.508 11.02 143.352 10.444C143.196 9.856 143.118 9.208 143.118 8.5ZM144.612 8.5C144.612 8.956 144.654 9.394 144.738 9.814C144.834 10.234 144.978 10.6 145.17 10.912C145.362 11.224 145.614 11.476 145.926 11.668C146.238 11.86 146.616 11.956 147.06 11.956C148.692 11.968 149.508 10.816 149.508 8.5C149.508 8.032 149.46 7.588 149.364 7.168C149.28 6.748 149.142 6.382 148.95 6.07C148.758 5.758 148.506 5.512 148.194 5.332C147.882 5.14 147.504 5.044 147.06 5.044C145.428 5.032 144.612 6.184 144.612 8.5ZM158.547 13V7.906C158.547 7.426 158.523 7.012 158.475 6.664C158.439 6.304 158.361 6.004 158.241 5.764C158.121 5.524 157.947 5.344 157.719 5.224C157.503 5.104 157.215 5.044 156.855 5.044C156.303 5.044 155.841 5.212 155.469 5.548C155.109 5.884 154.857 6.304 154.713 6.808V13H153.273V4H154.281L154.551 5.098H154.623C154.947 4.714 155.319 4.402 155.739 4.162C156.171 3.91 156.729 3.784 157.413 3.784C157.989 3.784 158.457 3.898 158.817 4.126C159.189 4.342 159.477 4.726 159.681 5.278C159.957 4.81 160.335 4.444 160.815 4.18C161.307 3.916 161.859 3.784 162.471 3.784C162.975 3.784 163.401 3.844 163.749 3.964C164.097 4.072 164.385 4.27 164.613 4.558C164.841 4.846 165.003 5.236 165.099 5.728C165.207 6.22 165.261 6.844 165.261 7.6V13H163.821V7.582C163.821 7.15 163.797 6.778 163.749 6.466C163.713 6.142 163.629 5.878 163.497 5.674C163.377 5.458 163.203 5.302 162.975 5.206C162.759 5.098 162.471 5.044 162.111 5.044C161.511 5.044 161.043 5.212 160.707 5.548C160.371 5.884 160.131 6.364 159.987 6.988V13H158.547ZM173.154 13V7.906C173.154 7.426 173.13 7.012 173.082 6.664C173.046 6.304 172.968 6.004 172.848 5.764C172.728 5.524 172.554 5.344 172.326 5.224C172.11 5.104 171.822 5.044 171.462 5.044C170.91 5.044 170.448 5.212 170.076 5.548C169.716 5.884 169.464 6.304 169.32 6.808V13H167.88V4H168.888L169.158 5.098H169.23C169.554 4.714 169.926 4.402 170.346 4.162C170.778 3.91 171.336 3.784 172.02 3.784C172.596 3.784 173.064 3.898 173.424 4.126C173.796 4.342 174.084 4.726 174.288 5.278C174.564 4.81 174.942 4.444 175.422 4.18C175.914 3.916 176.466 3.784 177.078 3.784C177.582 3.784 178.008 3.844 178.356 3.964C178.704 4.072 178.992 4.27 179.22 4.558C179.448 4.846 179.61 5.236 179.706 5.728C179.814 6.22 179.868 6.844 179.868 7.6V13H178.428V7.582C178.428 7.15 178.404 6.778 178.356 6.466C178.32 6.142 178.236 5.878 178.104 5.674C177.984 5.458 177.81 5.302 177.582 5.206C177.366 5.098 177.078 5.044 176.718 5.044C176.118 5.044 175.65 5.212 175.314 5.548C174.978 5.884 174.738 6.364 174.594 6.988V13H173.154ZM189.058 12.28C188.698 12.568 188.242 12.796 187.69 12.964C187.15 13.132 186.574 13.216 185.962 13.216C185.278 13.216 184.684 13.108 184.18 12.892C183.676 12.664 183.262 12.346 182.938 11.938C182.614 11.518 182.374 11.02 182.218 10.444C182.062 9.868 181.984 9.22 181.984 8.5C181.984 6.964 182.326 5.794 183.01 4.99C183.694 4.186 184.672 3.784 185.944 3.784C186.352 3.784 186.76 3.832 187.168 3.928C187.576 4.012 187.942 4.18 188.266 4.432C188.59 4.684 188.854 5.044 189.058 5.512C189.262 5.968 189.364 6.574 189.364 7.33C189.364 7.726 189.328 8.164 189.256 8.644H183.478C183.478 9.172 183.532 9.64 183.64 10.048C183.748 10.456 183.916 10.804 184.144 11.092C184.372 11.368 184.666 11.584 185.026 11.74C185.398 11.884 185.848 11.956 186.376 11.956C186.784 11.956 187.192 11.884 187.6 11.74C188.008 11.596 188.314 11.428 188.518 11.236L189.058 12.28ZM185.962 5.044C185.254 5.044 184.684 5.23 184.252 5.602C183.832 5.974 183.58 6.61 183.496 7.51H187.96C187.96 6.598 187.786 5.962 187.438 5.602C187.09 5.23 186.598 5.044 185.962 5.044ZM195.876 5.386C195.516 5.266 195.174 5.206 194.85 5.206C194.334 5.206 193.926 5.35 193.626 5.638C193.326 5.914 193.14 6.268 193.068 6.7V13H191.628V4H192.636L192.906 5.098H192.978C193.206 4.69 193.476 4.378 193.788 4.162C194.112 3.934 194.52 3.82 195.012 3.82C195.36 3.82 195.75 3.88 196.182 4L195.876 5.386ZM203.883 12.406C203.523 12.67 203.097 12.868 202.605 13C202.113 13.144 201.597 13.216 201.057 13.216C200.361 13.216 199.773 13.108 199.293 12.892C198.813 12.664 198.417 12.346 198.105 11.938C197.805 11.518 197.583 11.02 197.439 10.444C197.307 9.856 197.241 9.208 197.241 8.5C197.241 6.976 197.577 5.812 198.249 5.008C198.921 4.192 199.887 3.784 201.147 3.784C201.723 3.784 202.209 3.832 202.605 3.928C203.013 4.012 203.379 4.138 203.703 4.306L203.289 5.548C203.013 5.392 202.707 5.272 202.371 5.188C202.035 5.092 201.675 5.044 201.291 5.044C199.587 5.044 198.735 6.196 198.735 8.5C198.735 8.956 198.777 9.394 198.861 9.814C198.957 10.222 199.107 10.588 199.311 10.912C199.527 11.224 199.803 11.476 200.139 11.668C200.487 11.86 200.913 11.956 201.417 11.956C201.849 11.956 202.233 11.89 202.569 11.758C202.917 11.626 203.199 11.476 203.415 11.308L203.883 12.406ZM206.172 4H207.612V13H206.172V4ZM205.866 1.264C205.866 0.988 205.956 0.754 206.136 0.561999C206.328 0.358 206.568 0.256 206.856 0.256C207.144 0.256 207.39 0.358 207.594 0.561999C207.798 0.754 207.9 0.988 207.9 1.264C207.9 1.54 207.798 1.768 207.594 1.948C207.39 2.128 207.144 2.218 206.856 2.218C206.568 2.218 206.328 2.128 206.136 1.948C205.956 1.768 205.866 1.54 205.866 1.264ZM210.539 4.666C210.995 4.39 211.523 4.186 212.123 4.054C212.735 3.922 213.371 3.856 214.031 3.856C214.655 3.856 215.153 3.94 215.525 4.108C215.909 4.276 216.197 4.498 216.389 4.774C216.593 5.038 216.725 5.332 216.785 5.656C216.857 5.98 216.893 6.304 216.893 6.628C216.893 7.348 216.875 8.05 216.839 8.734C216.803 9.418 216.785 10.066 216.785 10.678C216.785 11.122 216.803 11.542 216.839 11.938C216.875 12.334 216.941 12.7 217.037 13.036H215.975L215.597 11.776H215.507C215.399 11.944 215.261 12.112 215.093 12.28C214.937 12.436 214.745 12.58 214.517 12.712C214.289 12.832 214.025 12.934 213.725 13.018C213.425 13.102 213.083 13.144 212.699 13.144C212.315 13.144 211.955 13.084 211.619 12.964C211.295 12.844 211.013 12.676 210.773 12.46C210.533 12.232 210.341 11.962 210.197 11.65C210.065 11.338 209.999 10.984 209.999 10.588C209.999 10.06 210.107 9.622 210.323 9.274C210.539 8.914 210.839 8.632 211.223 8.428C211.619 8.212 212.087 8.062 212.627 7.978C213.179 7.882 213.785 7.834 214.445 7.834C214.613 7.834 214.775 7.834 214.931 7.834C215.099 7.834 215.267 7.846 215.435 7.87C215.471 7.51 215.489 7.186 215.489 6.898C215.489 6.238 215.357 5.776 215.093 5.512C214.829 5.248 214.349 5.116 213.653 5.116C213.449 5.116 213.227 5.134 212.987 5.17C212.759 5.194 212.519 5.236 212.267 5.296C212.027 5.344 211.793 5.41 211.565 5.494C211.349 5.566 211.157 5.65 210.989 5.746L210.539 4.666ZM213.095 11.884C213.431 11.884 213.731 11.842 213.995 11.758C214.259 11.662 214.487 11.548 214.679 11.416C214.871 11.272 215.027 11.116 215.147 10.948C215.279 10.78 215.375 10.618 215.435 10.462V8.968C215.267 8.956 215.093 8.95 214.913 8.95C214.745 8.938 214.577 8.932 214.409 8.932C214.037 8.932 213.671 8.956 213.311 9.004C212.963 9.04 212.651 9.118 212.375 9.238C212.111 9.346 211.895 9.502 211.727 9.706C211.571 9.898 211.493 10.144 211.493 10.444C211.493 10.864 211.643 11.212 211.943 11.488C212.243 11.752 212.627 11.884 213.095 11.884ZM221.215 10.786C221.215 11.206 221.287 11.506 221.431 11.686C221.575 11.866 221.779 11.956 222.043 11.956C222.199 11.956 222.367 11.944 222.547 11.92C222.727 11.896 222.931 11.842 223.159 11.758L223.321 12.892C223.129 12.988 222.859 13.066 222.511 13.126C222.175 13.186 221.881 13.216 221.629 13.216C221.089 13.216 220.645 13.066 220.297 12.766C219.949 12.454 219.775 11.932 219.775 11.2V0.399999H221.215V10.786ZM278.142 0.399999H279.636V13H278.142V0.399999ZM288.672 13V7.87C288.672 6.934 288.534 6.232 288.258 5.764C287.994 5.284 287.502 5.044 286.782 5.044C286.146 5.044 285.618 5.218 285.198 5.566C284.79 5.902 284.502 6.328 284.334 6.844V13H282.894V4H283.902L284.172 5.098H284.244C284.532 4.714 284.916 4.402 285.396 4.162C285.888 3.91 286.47 3.784 287.142 3.784C287.634 3.784 288.066 3.844 288.438 3.964C288.81 4.072 289.116 4.27 289.356 4.558C289.608 4.846 289.794 5.236 289.914 5.728C290.046 6.208 290.112 6.82 290.112 7.564V13H288.672ZM299.65 9.904C299.65 10.516 299.656 11.074 299.668 11.578C299.68 12.07 299.734 12.556 299.83 13.036H298.858L298.498 11.758H298.426C298.186 12.178 297.838 12.526 297.382 12.802C296.926 13.078 296.392 13.216 295.78 13.216C294.58 13.216 293.686 12.838 293.098 12.082C292.522 11.326 292.234 10.144 292.234 8.536C292.234 7 292.594 5.836 293.314 5.044C294.046 4.24 295.048 3.838 296.32 3.838C296.764 3.838 297.112 3.862 297.364 3.91C297.628 3.958 297.91 4.036 298.21 4.144V0.399999H299.65V9.904ZM296.014 11.956C296.626 11.956 297.112 11.8 297.472 11.488C297.832 11.164 298.078 10.678 298.21 10.03V5.566C297.994 5.398 297.748 5.278 297.472 5.206C297.196 5.134 296.83 5.098 296.374 5.098C295.546 5.098 294.898 5.374 294.43 5.926C293.962 6.466 293.728 7.336 293.728 8.536C293.728 9.028 293.764 9.484 293.836 9.904C293.92 10.324 294.052 10.684 294.232 10.984C294.412 11.284 294.646 11.524 294.934 11.704C295.234 11.872 295.594 11.956 296.014 11.956ZM303.719 4V9.13C303.719 9.598 303.743 10.012 303.791 10.372C303.851 10.72 303.947 11.014 304.079 11.254C304.211 11.482 304.391 11.656 304.619 11.776C304.847 11.896 305.135 11.956 305.483 11.956C305.807 11.956 306.095 11.908 306.347 11.812C306.599 11.704 306.821 11.56 307.013 11.38C307.217 11.2 307.391 10.996 307.535 10.768C307.691 10.528 307.817 10.276 307.913 10.012V4H309.353V10.444C309.353 10.876 309.365 11.326 309.389 11.794C309.425 12.25 309.479 12.652 309.551 13H308.561L308.201 11.578H308.111C307.835 12.046 307.463 12.436 306.995 12.748C306.527 13.06 305.933 13.216 305.213 13.216C304.733 13.216 304.307 13.156 303.935 13.036C303.575 12.928 303.269 12.73 303.017 12.442C302.777 12.154 302.591 11.77 302.459 11.29C302.339 10.798 302.279 10.18 302.279 9.436V4H303.719ZM316.086 10.552C316.086 10.192 315.978 9.91 315.762 9.706C315.546 9.502 315.276 9.334 314.952 9.202C314.64 9.058 314.292 8.926 313.908 8.806C313.536 8.674 313.188 8.512 312.864 8.32C312.552 8.116 312.288 7.858 312.072 7.546C311.856 7.234 311.748 6.814 311.748 6.286C311.748 5.422 311.994 4.792 312.486 4.396C312.978 3.988 313.662 3.784 314.538 3.784C315.186 3.784 315.726 3.844 316.158 3.964C316.602 4.072 316.986 4.204 317.31 4.36L316.968 5.548C316.692 5.416 316.356 5.302 315.96 5.206C315.576 5.098 315.162 5.044 314.718 5.044C314.19 5.044 313.8 5.134 313.548 5.314C313.308 5.494 313.188 5.806 313.188 6.25C313.188 6.562 313.296 6.808 313.512 6.988C313.728 7.156 313.992 7.312 314.304 7.456C314.628 7.588 314.976 7.72 315.348 7.852C315.732 7.984 316.08 8.158 316.392 8.374C316.716 8.59 316.986 8.866 317.202 9.202C317.418 9.526 317.526 9.958 317.526 10.498C317.526 10.882 317.46 11.242 317.328 11.578C317.208 11.914 317.016 12.202 316.752 12.442C316.488 12.682 316.158 12.868 315.762 13C315.378 13.144 314.922 13.216 314.394 13.216C313.71 13.216 313.128 13.15 312.648 13.018C312.168 12.886 311.766 12.73 311.442 12.55L311.874 11.326C312.15 11.482 312.51 11.626 312.954 11.758C313.398 11.89 313.848 11.956 314.304 11.956C314.82 11.956 315.246 11.854 315.582 11.65C315.918 11.446 316.086 11.08 316.086 10.552ZM318.514 4H319.918V2.218L321.358 1.804V4H323.806V5.26H321.358V10.246C321.358 10.87 321.436 11.314 321.592 11.578C321.748 11.83 322.012 11.956 322.384 11.956C322.696 11.956 322.96 11.926 323.176 11.866C323.392 11.794 323.632 11.704 323.896 11.596L324.22 12.694C323.896 12.85 323.542 12.976 323.158 13.072C322.774 13.168 322.36 13.216 321.916 13.216C321.184 13.216 320.668 13.012 320.368 12.604C320.068 12.184 319.918 11.488 319.918 10.516V5.26H318.514V4ZM330.05 5.386C329.69 5.266 329.348 5.206 329.024 5.206C328.508 5.206 328.1 5.35 327.8 5.638C327.5 5.914 327.314 6.268 327.242 6.7V13H325.802V4H326.81L327.08 5.098H327.152C327.38 4.69 327.65 4.378 327.962 4.162C328.286 3.934 328.694 3.82 329.186 3.82C329.534 3.82 329.924 3.88 330.356 4L330.05 5.386ZM332.225 4H333.665V13H332.225V4ZM331.919 1.264C331.919 0.988 332.009 0.754 332.189 0.561999C332.381 0.358 332.621 0.256 332.909 0.256C333.197 0.256 333.443 0.358 333.647 0.561999C333.851 0.754 333.953 0.988 333.953 1.264C333.953 1.54 333.851 1.768 333.647 1.948C333.443 2.128 333.197 2.218 332.909 2.218C332.621 2.218 332.381 2.128 332.189 1.948C332.009 1.768 331.919 1.54 331.919 1.264ZM336.592 4.666C337.048 4.39 337.576 4.186 338.176 4.054C338.788 3.922 339.424 3.856 340.084 3.856C340.708 3.856 341.206 3.94 341.578 4.108C341.962 4.276 342.25 4.498 342.442 4.774C342.646 5.038 342.778 5.332 342.838 5.656C342.91 5.98 342.946 6.304 342.946 6.628C342.946 7.348 342.928 8.05 342.892 8.734C342.856 9.418 342.838 10.066 342.838 10.678C342.838 11.122 342.856 11.542 342.892 11.938C342.928 12.334 342.994 12.7 343.09 13.036H342.028L341.65 11.776H341.56C341.452 11.944 341.314 12.112 341.146 12.28C340.99 12.436 340.798 12.58 340.57 12.712C340.342 12.832 340.078 12.934 339.778 13.018C339.478 13.102 339.136 13.144 338.752 13.144C338.368 13.144 338.008 13.084 337.672 12.964C337.348 12.844 337.066 12.676 336.826 12.46C336.586 12.232 336.394 11.962 336.25 11.65C336.118 11.338 336.052 10.984 336.052 10.588C336.052 10.06 336.16 9.622 336.376 9.274C336.592 8.914 336.892 8.632 337.276 8.428C337.672 8.212 338.14 8.062 338.68 7.978C339.232 7.882 339.838 7.834 340.498 7.834C340.666 7.834 340.828 7.834 340.984 7.834C341.152 7.834 341.32 7.846 341.488 7.87C341.524 7.51 341.542 7.186 341.542 6.898C341.542 6.238 341.41 5.776 341.146 5.512C340.882 5.248 340.402 5.116 339.706 5.116C339.502 5.116 339.28 5.134 339.04 5.17C338.812 5.194 338.572 5.236 338.32 5.296C338.08 5.344 337.846 5.41 337.618 5.494C337.402 5.566 337.21 5.65 337.042 5.746L336.592 4.666ZM339.148 11.884C339.484 11.884 339.784 11.842 340.048 11.758C340.312 11.662 340.54 11.548 340.732 11.416C340.924 11.272 341.08 11.116 341.2 10.948C341.332 10.78 341.428 10.618 341.488 10.462V8.968C341.32 8.956 341.146 8.95 340.966 8.95C340.798 8.938 340.63 8.932 340.462 8.932C340.09 8.932 339.724 8.956 339.364 9.004C339.016 9.04 338.704 9.118 338.428 9.238C338.164 9.346 337.948 9.502 337.78 9.706C337.624 9.898 337.546 10.144 337.546 10.444C337.546 10.864 337.696 11.212 337.996 11.488C338.296 11.752 338.68 11.884 339.148 11.884ZM347.267 10.786C347.267 11.206 347.339 11.506 347.483 11.686C347.627 11.866 347.831 11.956 348.095 11.956C348.251 11.956 348.419 11.944 348.599 11.92C348.779 11.896 348.983 11.842 349.211 11.758L349.373 12.892C349.181 12.988 348.911 13.066 348.563 13.126C348.227 13.186 347.933 13.216 347.681 13.216C347.141 13.216 346.697 13.066 346.349 12.766C346.001 12.454 345.827 11.932 345.827 11.2V0.399999H347.267V10.786ZM403.852 0.399999C404.08 0.364 404.332 0.34 404.608 0.327999C404.896 0.303999 405.19 0.291999 405.49 0.291999C405.802 0.28 406.102 0.274 406.39 0.274C406.69 0.262 406.966 0.256 407.218 0.256C408.226 0.256 409.096 0.412 409.828 0.723999C410.572 1.036 411.184 1.474 411.664 2.038C412.144 2.59 412.498 3.256 412.726 4.036C412.966 4.816 413.086 5.674 413.086 6.61C413.086 7.462 412.972 8.284 412.744 9.076C412.528 9.856 412.18 10.552 411.7 11.164C411.22 11.764 410.596 12.25 409.828 12.622C409.06 12.982 408.13 13.162 407.038 13.162C406.846 13.162 406.594 13.156 406.282 13.144C405.982 13.144 405.67 13.132 405.346 13.108C405.022 13.096 404.722 13.084 404.446 13.072C404.17 13.06 403.972 13.042 403.852 13.018V0.399999ZM407.254 1.588C407.098 1.588 406.924 1.588 406.732 1.588C406.552 1.588 406.372 1.594 406.192 1.606C406.012 1.618 405.844 1.63 405.688 1.642C405.544 1.654 405.43 1.666 405.346 1.678V11.758C405.406 11.77 405.52 11.782 405.688 11.794C405.856 11.794 406.03 11.8 406.21 11.812C406.39 11.812 406.564 11.818 406.732 11.83C406.9 11.83 407.014 11.83 407.074 11.83C407.914 11.83 408.616 11.686 409.18 11.398C409.756 11.11 410.212 10.726 410.548 10.246C410.896 9.754 411.142 9.196 411.286 8.572C411.43 7.936 411.502 7.282 411.502 6.61C411.502 6.022 411.436 5.434 411.304 4.846C411.172 4.246 410.944 3.706 410.62 3.226C410.296 2.746 409.858 2.356 409.306 2.056C408.766 1.744 408.082 1.588 407.254 1.588ZM422.056 12.28C421.696 12.568 421.24 12.796 420.688 12.964C420.148 13.132 419.572 13.216 418.96 13.216C418.276 13.216 417.682 13.108 417.178 12.892C416.674 12.664 416.26 12.346 415.936 11.938C415.612 11.518 415.372 11.02 415.216 10.444C415.06 9.868 414.982 9.22 414.982 8.5C414.982 6.964 415.324 5.794 416.008 4.99C416.692 4.186 417.67 3.784 418.942 3.784C419.35 3.784 419.758 3.832 420.166 3.928C420.574 4.012 420.94 4.18 421.264 4.432C421.588 4.684 421.852 5.044 422.056 5.512C422.26 5.968 422.362 6.574 422.362 7.33C422.362 7.726 422.326 8.164 422.254 8.644H416.476C416.476 9.172 416.53 9.64 416.638 10.048C416.746 10.456 416.914 10.804 417.142 11.092C417.37 11.368 417.664 11.584 418.024 11.74C418.396 11.884 418.846 11.956 419.374 11.956C419.782 11.956 420.19 11.884 420.598 11.74C421.006 11.596 421.312 11.428 421.516 11.236L422.056 12.28ZM418.96 5.044C418.252 5.044 417.682 5.23 417.25 5.602C416.83 5.974 416.578 6.61 416.494 7.51H420.958C420.958 6.598 420.784 5.962 420.436 5.602C420.088 5.23 419.596 5.044 418.96 5.044ZM428.586 10.552C428.586 10.192 428.478 9.91 428.262 9.706C428.046 9.502 427.776 9.334 427.452 9.202C427.14 9.058 426.792 8.926 426.408 8.806C426.036 8.674 425.688 8.512 425.364 8.32C425.052 8.116 424.788 7.858 424.572 7.546C424.356 7.234 424.248 6.814 424.248 6.286C424.248 5.422 424.494 4.792 424.986 4.396C425.478 3.988 426.162 3.784 427.038 3.784C427.686 3.784 428.226 3.844 428.658 3.964C429.102 4.072 429.486 4.204 429.81 4.36L429.468 5.548C429.192 5.416 428.856 5.302 428.46 5.206C428.076 5.098 427.662 5.044 427.218 5.044C426.69 5.044 426.3 5.134 426.048 5.314C425.808 5.494 425.688 5.806 425.688 6.25C425.688 6.562 425.796 6.808 426.012 6.988C426.228 7.156 426.492 7.312 426.804 7.456C427.128 7.588 427.476 7.72 427.848 7.852C428.232 7.984 428.58 8.158 428.892 8.374C429.216 8.59 429.486 8.866 429.702 9.202C429.918 9.526 430.026 9.958 430.026 10.498C430.026 10.882 429.96 11.242 429.828 11.578C429.708 11.914 429.516 12.202 429.252 12.442C428.988 12.682 428.658 12.868 428.262 13C427.878 13.144 427.422 13.216 426.894 13.216C426.21 13.216 425.628 13.15 425.148 13.018C424.668 12.886 424.266 12.73 423.942 12.55L424.374 11.326C424.65 11.482 425.01 11.626 425.454 11.758C425.898 11.89 426.348 11.956 426.804 11.956C427.32 11.956 427.746 11.854 428.082 11.65C428.418 11.446 428.586 11.08 428.586 10.552ZM432.508 4H433.948V13H432.508V4ZM432.202 1.264C432.202 0.988 432.292 0.754 432.472 0.561999C432.664 0.358 432.904 0.256 433.192 0.256C433.48 0.256 433.726 0.358 433.93 0.561999C434.134 0.754 434.236 0.988 434.236 1.264C434.236 1.54 434.134 1.768 433.93 1.948C433.726 2.128 433.48 2.218 433.192 2.218C432.904 2.218 432.664 2.128 432.472 1.948C432.292 1.768 432.202 1.54 432.202 1.264ZM443.913 13.414C443.913 14.578 443.601 15.436 442.977 15.988C442.365 16.54 441.453 16.816 440.241 16.816C439.521 16.816 438.939 16.768 438.495 16.672C438.063 16.588 437.691 16.474 437.379 16.33L437.757 15.106C438.033 15.214 438.339 15.316 438.675 15.412C439.011 15.508 439.449 15.556 439.989 15.556C440.493 15.556 440.901 15.508 441.213 15.412C441.537 15.328 441.795 15.178 441.987 14.962C442.179 14.758 442.311 14.488 442.383 14.152C442.455 13.828 442.491 13.438 442.491 12.982V12.118H442.419C442.179 12.466 441.873 12.736 441.501 12.928C441.129 13.108 440.643 13.198 440.043 13.198C438.831 13.198 437.937 12.82 437.361 12.064C436.797 11.308 436.515 10.132 436.515 8.536C436.515 7 436.881 5.836 437.613 5.044C438.345 4.24 439.425 3.838 440.853 3.838C441.537 3.838 442.119 3.892 442.599 4C443.091 4.108 443.529 4.234 443.913 4.378V13.414ZM440.295 11.938C440.907 11.938 441.387 11.788 441.735 11.488C442.083 11.176 442.329 10.696 442.473 10.048V5.44C441.993 5.212 441.381 5.098 440.637 5.098C439.821 5.098 439.179 5.374 438.711 5.926C438.243 6.478 438.009 7.342 438.009 8.518C438.009 9.022 438.051 9.484 438.135 9.904C438.219 10.324 438.351 10.684 438.531 10.984C438.711 11.284 438.945 11.518 439.233 11.686C439.521 11.854 439.875 11.938 440.295 11.938ZM452.465 13V7.87C452.465 6.934 452.327 6.232 452.051 5.764C451.787 5.284 451.295 5.044 450.575 5.044C449.939 5.044 449.411 5.218 448.991 5.566C448.583 5.902 448.295 6.328 448.127 6.844V13H446.687V4H447.695L447.965 5.098H448.037C448.325 4.714 448.709 4.402 449.189 4.162C449.681 3.91 450.263 3.784 450.935 3.784C451.427 3.784 451.859 3.844 452.231 3.964C452.603 4.072 452.909 4.27 453.149 4.558C453.401 4.846 453.587 5.236 453.707 5.728C453.839 6.208 453.905 6.82 453.905 7.564V13H452.465ZM456.207 7.15H460.563V8.482H456.207V7.15ZM470.757 3.28C470.757 3.58 470.709 3.886 470.613 4.198C470.517 4.51 470.373 4.804 470.181 5.08C469.989 5.344 469.743 5.578 469.443 5.782C469.143 5.986 468.789 6.142 468.381 6.25V6.322C468.741 6.382 469.083 6.484 469.407 6.628C469.743 6.772 470.037 6.97 470.289 7.222C470.541 7.474 470.745 7.78 470.901 8.14C471.057 8.5 471.135 8.926 471.135 9.418C471.135 10.066 470.997 10.63 470.721 11.11C470.457 11.578 470.103 11.962 469.659 12.262C469.227 12.562 468.729 12.784 468.165 12.928C467.601 13.072 467.025 13.144 466.437 13.144C466.233 13.144 465.993 13.144 465.717 13.144C465.441 13.144 465.153 13.132 464.853 13.108C464.553 13.096 464.253 13.072 463.953 13.036C463.653 13.012 463.389 12.97 463.161 12.91V0.508C463.605 0.435999 464.121 0.375999 464.709 0.327999C465.297 0.28 465.939 0.256 466.635 0.256C467.103 0.256 467.577 0.298 468.057 0.381999C468.549 0.453999 468.993 0.603999 469.389 0.831999C469.785 1.048 470.109 1.354 470.361 1.75C470.625 2.146 470.757 2.656 470.757 3.28ZM466.581 11.848C466.965 11.848 467.337 11.806 467.697 11.722C468.057 11.626 468.375 11.482 468.651 11.29C468.927 11.086 469.143 10.84 469.299 10.552C469.467 10.264 469.551 9.922 469.551 9.526C469.551 9.034 469.449 8.638 469.245 8.338C469.053 8.038 468.795 7.804 468.471 7.636C468.159 7.468 467.805 7.354 467.409 7.294C467.013 7.234 466.617 7.204 466.221 7.204H464.655V11.722C464.739 11.746 464.859 11.764 465.015 11.776C465.171 11.788 465.339 11.8 465.519 11.812C465.699 11.824 465.885 11.836 466.077 11.848C466.269 11.848 466.437 11.848 466.581 11.848ZM465.591 5.944C465.795 5.944 466.041 5.938 466.329 5.926C466.617 5.914 466.857 5.896 467.049 5.872C467.337 5.776 467.607 5.662 467.859 5.53C468.111 5.386 468.333 5.224 468.525 5.044C468.729 4.852 468.885 4.636 468.993 4.396C469.113 4.144 469.173 3.874 469.173 3.586C469.173 3.19 469.095 2.866 468.939 2.614C468.795 2.35 468.597 2.14 468.345 1.984C468.093 1.828 467.805 1.72 467.481 1.66C467.157 1.588 466.827 1.552 466.491 1.552C466.095 1.552 465.729 1.564 465.393 1.588C465.069 1.6 464.823 1.624 464.655 1.66V5.944H465.591ZM474.825 4V9.13C474.825 9.598 474.849 10.012 474.897 10.372C474.957 10.72 475.053 11.014 475.185 11.254C475.317 11.482 475.497 11.656 475.725 11.776C475.953 11.896 476.241 11.956 476.589 11.956C476.913 11.956 477.201 11.908 477.453 11.812C477.705 11.704 477.927 11.56 478.119 11.38C478.323 11.2 478.497 10.996 478.641 10.768C478.797 10.528 478.923 10.276 479.019 10.012V4H480.459V10.444C480.459 10.876 480.471 11.326 480.495 11.794C480.531 12.25 480.585 12.652 480.657 13H479.667L479.307 11.578H479.217C478.941 12.046 478.569 12.436 478.101 12.748C477.633 13.06 477.039 13.216 476.319 13.216C475.839 13.216 475.413 13.156 475.041 13.036C474.681 12.928 474.375 12.73 474.123 12.442C473.883 12.154 473.697 11.77 473.565 11.29C473.445 10.798 473.385 10.18 473.385 9.436V4H474.825ZM483.538 4H484.978V13H483.538V4ZM483.232 1.264C483.232 0.988 483.322 0.754 483.502 0.561999C483.694 0.358 483.934 0.256 484.222 0.256C484.51 0.256 484.756 0.358 484.96 0.561999C485.164 0.754 485.266 0.988 485.266 1.264C485.266 1.54 485.164 1.768 484.96 1.948C484.756 2.128 484.51 2.218 484.222 2.218C483.934 2.218 483.694 2.128 483.502 1.948C483.322 1.768 483.232 1.54 483.232 1.264ZM489.65 10.786C489.65 11.206 489.722 11.506 489.866 11.686C490.01 11.866 490.214 11.956 490.478 11.956C490.634 11.956 490.802 11.944 490.982 11.92C491.162 11.896 491.366 11.842 491.594 11.758L491.756 12.892C491.564 12.988 491.294 13.066 490.946 13.126C490.61 13.186 490.316 13.216 490.064 13.216C489.524 13.216 489.08 13.066 488.732 12.766C488.384 12.454 488.21 11.932 488.21 11.2V0.399999H489.65V10.786ZM500.216 9.904C500.216 10.516 500.222 11.074 500.234 11.578C500.246 12.07 500.3 12.556 500.396 13.036H499.424L499.064 11.758H498.992C498.752 12.178 498.404 12.526 497.948 12.802C497.492 13.078 496.958 13.216 496.346 13.216C495.146 13.216 494.252 12.838 493.664 12.082C493.088 11.326 492.8 10.144 492.8 8.536C492.8 7 493.16 5.836 493.88 5.044C494.612 4.24 495.614 3.838 496.886 3.838C497.33 3.838 497.678 3.862 497.93 3.91C498.194 3.958 498.476 4.036 498.776 4.144V0.399999H500.216V9.904ZM496.58 11.956C497.192 11.956 497.678 11.8 498.038 11.488C498.398 11.164 498.644 10.678 498.776 10.03V5.566C498.56 5.398 498.314 5.278 498.038 5.206C497.762 5.134 497.396 5.098 496.94 5.098C496.112 5.098 495.464 5.374 494.996 5.926C494.528 6.466 494.294 7.336 494.294 8.536C494.294 9.028 494.33 9.484 494.402 9.904C494.486 10.324 494.618 10.684 494.798 10.984C494.978 11.284 495.212 11.524 495.5 11.704C495.8 11.872 496.16 11.956 496.58 11.956ZM561.609 9.796C561.609 9.292 561.459 8.884 561.159 8.572C560.859 8.248 560.481 7.966 560.025 7.726C559.581 7.474 559.095 7.24 558.567 7.024C558.039 6.808 557.547 6.55 557.091 6.25C556.647 5.938 556.275 5.56 555.975 5.116C555.675 4.66 555.525 4.084 555.525 3.388C555.525 2.404 555.867 1.624 556.551 1.048C557.235 0.472 558.207 0.184 559.467 0.184C560.199 0.184 560.865 0.238 561.465 0.346C562.065 0.454 562.533 0.592 562.869 0.76L562.419 2.074C562.143 1.942 561.735 1.816 561.195 1.696C560.667 1.576 560.067 1.516 559.395 1.516C558.603 1.516 558.009 1.696 557.613 2.056C557.217 2.404 557.019 2.818 557.019 3.298C557.019 3.766 557.169 4.156 557.469 4.468C557.769 4.78 558.141 5.062 558.585 5.314C559.041 5.554 559.533 5.794 560.061 6.034C560.589 6.274 561.075 6.556 561.519 6.88C561.975 7.192 562.353 7.57 562.653 8.014C562.953 8.458 563.103 9.01 563.103 9.67C563.103 10.21 563.007 10.696 562.815 11.128C562.623 11.56 562.341 11.932 561.969 12.244C561.597 12.556 561.147 12.796 560.619 12.964C560.091 13.132 559.491 13.216 558.819 13.216C557.919 13.216 557.175 13.144 556.587 13C555.999 12.868 555.543 12.718 555.219 12.55L555.723 11.2C555.999 11.356 556.407 11.512 556.947 11.668C557.487 11.812 558.093 11.884 558.765 11.884C559.161 11.884 559.533 11.848 559.881 11.776C560.229 11.692 560.529 11.566 560.781 11.398C561.033 11.218 561.231 10.996 561.375 10.732C561.531 10.468 561.609 10.156 561.609 9.796ZM571.909 12.28C571.549 12.568 571.093 12.796 570.541 12.964C570.001 13.132 569.425 13.216 568.813 13.216C568.129 13.216 567.535 13.108 567.031 12.892C566.527 12.664 566.113 12.346 565.789 11.938C565.465 11.518 565.225 11.02 565.069 10.444C564.913 9.868 564.835 9.22 564.835 8.5C564.835 6.964 565.177 5.794 565.861 4.99C566.545 4.186 567.523 3.784 568.795 3.784C569.203 3.784 569.611 3.832 570.019 3.928C570.427 4.012 570.793 4.18 571.117 4.432C571.441 4.684 571.705 5.044 571.909 5.512C572.113 5.968 572.215 6.574 572.215 7.33C572.215 7.726 572.179 8.164 572.107 8.644H566.329C566.329 9.172 566.383 9.64 566.491 10.048C566.599 10.456 566.767 10.804 566.995 11.092C567.223 11.368 567.517 11.584 567.877 11.74C568.249 11.884 568.699 11.956 569.227 11.956C569.635 11.956 570.043 11.884 570.451 11.74C570.859 11.596 571.165 11.428 571.369 11.236L571.909 12.28ZM568.813 5.044C568.105 5.044 567.535 5.23 567.103 5.602C566.683 5.974 566.431 6.61 566.347 7.51H570.811C570.811 6.598 570.637 5.962 570.289 5.602C569.941 5.23 569.449 5.044 568.813 5.044ZM578.728 5.386C578.368 5.266 578.026 5.206 577.702 5.206C577.186 5.206 576.778 5.35 576.478 5.638C576.178 5.914 575.992 6.268 575.92 6.7V13H574.48V4H575.488L575.758 5.098H575.83C576.058 4.69 576.328 4.378 576.64 4.162C576.964 3.934 577.372 3.82 577.864 3.82C578.212 3.82 578.602 3.88 579.034 4L578.728 5.386ZM583.189 9.274L583.693 10.984H583.711L584.161 9.238L586.177 4H587.725L583.891 13.198H583.279L579.373 4H581.029L583.189 9.274ZM589.587 4H591.027V13H589.587V4ZM589.281 1.264C589.281 0.988 589.371 0.754 589.551 0.561999C589.743 0.358 589.983 0.256 590.271 0.256C590.559 0.256 590.805 0.358 591.009 0.561999C591.213 0.754 591.315 0.988 591.315 1.264C591.315 1.54 591.213 1.768 591.009 1.948C590.805 2.128 590.559 2.218 590.271 2.218C589.983 2.218 589.743 2.128 589.551 1.948C589.371 1.768 589.281 1.54 589.281 1.264ZM600.235 12.406C599.875 12.67 599.449 12.868 598.957 13C598.465 13.144 597.949 13.216 597.409 13.216C596.713 13.216 596.125 13.108 595.645 12.892C595.165 12.664 594.769 12.346 594.457 11.938C594.157 11.518 593.935 11.02 593.791 10.444C593.659 9.856 593.593 9.208 593.593 8.5C593.593 6.976 593.929 5.812 594.601 5.008C595.273 4.192 596.239 3.784 597.499 3.784C598.075 3.784 598.561 3.832 598.957 3.928C599.365 4.012 599.731 4.138 600.055 4.306L599.641 5.548C599.365 5.392 599.059 5.272 598.723 5.188C598.387 5.092 598.027 5.044 597.643 5.044C595.939 5.044 595.087 6.196 595.087 8.5C595.087 8.956 595.129 9.394 595.213 9.814C595.309 10.222 595.459 10.588 595.663 10.912C595.879 11.224 596.155 11.476 596.491 11.668C596.839 11.86 597.265 11.956 597.769 11.956C598.201 11.956 598.585 11.89 598.921 11.758C599.269 11.626 599.551 11.476 599.767 11.308L600.235 12.406ZM608.366 12.28C608.006 12.568 607.55 12.796 606.998 12.964C606.458 13.132 605.882 13.216 605.27 13.216C604.586 13.216 603.992 13.108 603.488 12.892C602.984 12.664 602.57 12.346 602.246 11.938C601.922 11.518 601.682 11.02 601.526 10.444C601.37 9.868 601.292 9.22 601.292 8.5C601.292 6.964 601.634 5.794 602.318 4.99C603.002 4.186 603.98 3.784 605.252 3.784C605.66 3.784 606.068 3.832 606.476 3.928C606.884 4.012 607.25 4.18 607.574 4.432C607.898 4.684 608.162 5.044 608.366 5.512C608.57 5.968 608.672 6.574 608.672 7.33C608.672 7.726 608.636 8.164 608.564 8.644H602.786C602.786 9.172 602.84 9.64 602.948 10.048C603.056 10.456 603.224 10.804 603.452 11.092C603.68 11.368 603.974 11.584 604.334 11.74C604.706 11.884 605.156 11.956 605.684 11.956C606.092 11.956 606.5 11.884 606.908 11.74C607.316 11.596 607.622 11.428 607.826 11.236L608.366 12.28ZM605.27 5.044C604.562 5.044 603.992 5.23 603.56 5.602C603.14 5.974 602.888 6.61 602.804 7.51H607.268C607.268 6.598 607.094 5.962 606.746 5.602C606.398 5.23 605.906 5.044 605.27 5.044Z" fill="black"/>
</svg>
